<?xml version="1.0"?>

<svg xmlns="http://www.w3.org/2000/svg" version="1.1" width="86px" height="86px" style="shape-rendering:geometricPrecision; text-rendering:geometricPrecision; image-rendering:optimizeQuality; fill-rule:evenodd; clip-rule:evenodd" xmlns:xlink="http://www.w3.org/1999/xlink">
<g><path style="opacity:1" fill="#060a0f" d="M 85.5,35.5 C 85.5,39.1667 85.5,42.8333 85.5,46.5C 83.2336,48.2173 80.7336,49.5506 78,50.5C 74.4294,56.1054 73.4294,62.1054 75,68.5C 71.0373,75.6023 65.704,76.9356 59,72.5C 57.2467,73.627 55.4134,74.627 53.5,75.5C 52.0394,78.4575 50.0394,80.9575 47.5,83C 42.7712,83.9956 38.2712,83.4956 34,81.5C 33.1628,79.6494 32.3295,77.8161 31.5,76C 26.7415,72.3439 21.7415,71.8439 16.5,74.5C 7.93035,71.4479 5.93035,66.1145 10.5,58.5C 11.0967,58.2648 11.4301,57.7648 11.5,57C 10.7667,54.2804 9.7667,51.7804 8.5,49.5C 7.83333,49.5 7.16667,49.5 6.5,49.5C 5.20733,47.7041 3.70733,46.0375 2,44.5C 1.50335,42.1902 1.33669,39.8568 1.5,37.5C 2.52688,34.142 4.86021,32.4754 8.5,32.5C 9.93112,32.1193 10.7645,31.1193 11,29.5C 11.4828,30.448 11.6495,31.448 11.5,32.5C 9.36029,33.9683 7.19362,35.635 5,37.5C 3.76183,43.2701 6.09516,46.6034 12,47.5C 13.0114,51.3678 14.5114,55.0345 16.5,58.5C 14.7775,60.7776 13.4441,63.2776 12.5,66C 13.2718,67.221 14.2718,68.221 15.5,69C 18.4391,68.801 21.2724,67.9677 24,66.5C 27.2866,69.3926 31.1199,71.0592 35.5,71.5C 36.934,73.2199 37.7674,75.2199 38,77.5C 40.4659,78.7766 42.9659,78.7766 45.5,77.5C 46.5,75.5 47.5,73.5 48.5,71.5C 51.1155,70.2384 53.7821,69.0718 56.5,68C 60.2226,68.0397 63.8892,68.3731 67.5,69C 71.0141,66.2788 71.3474,63.1122 68.5,59.5C 70.1004,55.1986 71.6004,50.8653 73,46.5C 74.923,45.6839 76.923,45.0172 79,44.5C 82.1651,42.2755 82.3318,39.7755 79.5,37C 77.3415,36.088 75.1748,35.2546 73,34.5C 71.9715,30.111 70.1381,26.111 67.5,22.5C 69.0267,20.8067 70.3601,18.9734 71.5,17C 70.5428,14.3717 68.7095,12.8717 66,12.5C 63.3988,14.153 60.5655,14.653 57.5,14C 54.5394,12.7353 51.5394,11.5686 48.5,10.5C 47.5713,9.31116 47.238,7.97782 47.5,6.5C 47.5,5.83333 47.1667,5.5 46.5,5.5C 46.5,5.16667 46.5,4.83333 46.5,4.5C 46.5,3.16667 45.8333,2.5 44.5,2.5C 41.9407,2.19845 39.6074,2.53178 37.5,3.5C 36.8333,3.5 36.5,3.16667 36.5,2.5C 36.9175,1.77842 37.5842,1.27842 38.5,1C 41.5,0.333333 44.5,0.333333 47.5,1C 48.741,3.56284 50.0744,6.06284 51.5,8.5C 54.1667,9.5 56.8333,10.5 59.5,11.5C 67.5959,6.21638 72.9293,8.21638 75.5,17.5C 74.5535,19.059 73.8868,20.7257 73.5,22.5C 74.7976,25.4222 75.7976,28.4222 76.5,31.5C 80.1293,31.4825 83.1293,32.8158 85.5,35.5 Z"></path></g>
<g><path style="opacity:1" fill="#2dc6b5" d="M 44.5,2.5 C 44.8333,3.5 45.5,4.16667 46.5,4.5C 46.5,4.83333 46.5,5.16667 46.5,5.5C 47.1667,5.5 47.5,5.83333 47.5,6.5C 47.238,7.97782 47.5713,9.31116 48.5,10.5C 51.5394,11.5686 54.5394,12.7353 57.5,14C 60.5655,14.653 63.3988,14.153 66,12.5C 68.7095,12.8717 70.5428,14.3717 71.5,17C 70.3601,18.9734 69.0267,20.8067 67.5,22.5C 70.1381,26.111 71.9715,30.111 73,34.5C 75.1748,35.2546 77.3415,36.088 79.5,37C 82.3318,39.7755 82.1651,42.2755 79,44.5C 76.923,45.0172 74.923,45.6839 73,46.5C 71.6004,50.8653 70.1004,55.1986 68.5,59.5C 71.3474,63.1122 71.0141,66.2788 67.5,69C 63.8892,68.3731 60.2226,68.0397 56.5,68C 53.7821,69.0718 51.1155,70.2384 48.5,71.5C 47.5,73.5 46.5,75.5 45.5,77.5C 42.9659,78.7766 40.4659,78.7766 38,77.5C 37.7674,75.2199 36.934,73.2199 35.5,71.5C 31.1199,71.0592 27.2866,69.3926 24,66.5C 21.2724,67.9677 18.4391,68.801 15.5,69C 14.2718,68.221 13.2718,67.221 12.5,66C 13.4441,63.2776 14.7775,60.7776 16.5,58.5C 14.5114,55.0345 13.0114,51.3678 12,47.5C 6.09516,46.6034 3.76183,43.2701 5,37.5C 7.19362,35.635 9.36029,33.9683 11.5,32.5C 12.4269,29.4263 13.4269,26.2596 14.5,23C 13.9785,20.7899 13.3118,18.6232 12.5,16.5C 13.0924,14.5775 14.0924,12.9108 15.5,11.5C 16.1667,11.5 16.8333,11.5 17.5,11.5C 18.1667,11.5 18.8333,11.5 19.5,11.5C 19.8333,11.5 20.1667,11.5 20.5,11.5C 20.5,12.1667 20.8333,12.5 21.5,12.5C 22.1667,13.8333 22.8333,13.8333 23.5,12.5C 23.8333,12.5 24.1667,12.5 24.5,12.5C 26.7014,11.4336 29.0347,10.767 31.5,10.5C 34.874,9.45469 36.874,7.12135 37.5,3.5C 39.6074,2.53178 41.9407,2.19845 44.5,2.5 Z"></path></g>
<g><path style="opacity:1" fill="#030609" d="M 24.5,12.5 C 24.1667,12.5 23.8333,12.5 23.5,12.5C 22.8333,12.5 22.1667,12.5 21.5,12.5C 20.8333,12.5 20.5,12.1667 20.5,11.5C 20.1667,11.5 19.8333,11.5 19.5,11.5C 18.8333,10.1667 18.1667,10.1667 17.5,11.5C 16.8333,11.5 16.1667,11.5 15.5,11.5C 15.1667,11.5 14.8333,11.5 14.5,11.5C 18.0406,8.75174 21.3739,9.08508 24.5,12.5 Z"></path></g>
<g><path style="opacity:1" fill="#3392a5" d="M 36.5,2.5 C 36.5,3.16667 36.8333,3.5 37.5,3.5C 36.874,7.12135 34.874,9.45469 31.5,10.5C 32.8033,7.56344 34.47,4.89678 36.5,2.5 Z"></path></g>
<g><path style="opacity:1" fill="#3ab8b7" d="M 10.5,15.5 C 11.158,18.1555 11.8246,20.8222 12.5,23.5C 12.6598,25.3545 11.9931,26.6879 10.5,27.5C 9.83554,23.5022 9.83554,19.5022 10.5,15.5 Z"></path></g>
<g><path style="opacity:1" fill="#f8ecce" d="M 34.5,18.5 C 49.3808,16.0468 59.5474,21.7135 65,35.5C 67.2976,54.0364 59.131,64.0364 40.5,65.5C 24.0003,63.524 16.167,54.1907 17,37.5C 19.2415,27.762 25.0748,21.4286 34.5,18.5 Z"></path></g>
<g><path style="opacity:1" fill="#5dcec0" d="M 39.5,24.5 C 40.8333,24.5 42.1667,24.5 43.5,24.5C 43.33,25.8221 43.6634,26.9887 44.5,28C 52.5457,29.9023 54.5457,34.4023 50.5,41.5C 54.417,48.2716 52.7503,52.9383 45.5,55.5C 42.9642,61.9225 40.6309,61.9225 38.5,55.5C 35.7118,55.9231 33.7118,54.9231 32.5,52.5C 33.8171,45.3459 33.8171,38.1793 32.5,31C 32.6448,30.228 32.9781,29.5613 33.5,29C 35.1341,28.5065 36.8008,28.3398 38.5,28.5C 38.4326,27.0413 38.7659,25.7079 39.5,24.5 Z"></path></g>
<g><path style="opacity:1" fill="#1a3245" d="M 14.5,11.5 C 14.8333,11.5 15.1667,11.5 15.5,11.5C 14.0924,12.9108 13.0924,14.5775 12.5,16.5C 13.3118,18.6232 13.9785,20.7899 14.5,23C 13.4269,26.2596 12.4269,29.4263 11.5,32.5C 11.6495,31.448 11.4828,30.448 11,29.5C 10.7645,31.1193 9.93112,32.1193 8.5,32.5C 9.16667,30.8333 9.83333,29.1667 10.5,27.5C 11.9931,26.6879 12.6598,25.3545 12.5,23.5C 11.8246,20.8222 11.158,18.1555 10.5,15.5C 10.8333,13.1667 12.1667,11.8333 14.5,11.5 Z"></path></g>
<g><path style="opacity:1" fill="#f9edcd" d="M 39.5,33.5 C 42.6646,32.9635 45.3312,33.7969 47.5,36C 45.3312,38.2031 42.6646,39.0365 39.5,38.5C 39.5,36.8333 39.5,35.1667 39.5,33.5 Z"></path></g>
<g><path style="opacity:1" fill="#32b5b9" d="M 1.5,37.5 C 1.33669,39.8568 1.50335,42.1902 2,44.5C 3.70733,46.0375 5.20733,47.7041 6.5,49.5C 3.30045,48.9565 0.967116,47.2898 -0.5,44.5C -0.5,42.8333 -0.5,41.1667 -0.5,39.5C 0.166667,38.8333 0.833333,38.1667 1.5,37.5 Z"></path></g>
<g><path style="opacity:1" fill="#f8ecce" d="M 39.5,44.5 C 42.9079,43.828 45.5745,44.828 47.5,47.5C 45.2716,49.4011 42.6049,50.4011 39.5,50.5C 39.5,48.5 39.5,46.5 39.5,44.5 Z"></path></g>
<g><path style="opacity:1" fill="#37a4b0" d="M 8.5,49.5 C 9.7667,51.7804 10.7667,54.2804 11.5,57C 11.4301,57.7648 11.0967,58.2648 10.5,58.5C 9.42222,55.5979 8.75556,52.5979 8.5,49.5 Z"></path></g>
</svg>